<svg width="24" height="24" viewBox="0 0 24 24" fill="none" xmlns="http://www.w3.org/2000/svg">
<path d="M17.8501 19.9501L13.4251 15.5251L15.5251 13.4251L19.9501 17.8501C20.2334 18.1334 20.3751 18.4834 20.3751 18.9001C20.3751 19.3168 20.2334 19.6668 19.9501 19.9501C19.6667 20.2334 19.3167 20.3751 18.9001 20.3751C18.4834 20.3751 18.1334 20.2334 17.8501 19.9501ZM4.05007 19.9501C3.76673 19.6668 3.62507 19.3168 3.62507 18.9001C3.62507 18.4834 3.76673 18.1334 4.05007 17.8501L9.90006 12.0001L8.20007 10.3001C8.01673 10.4834 7.7834 10.5751 7.50007 10.5751C7.21673 10.5751 6.9834 10.4834 6.80007 10.3001L6.22507 9.7251V11.9751C6.22507 12.2084 6.12507 12.3668 5.92507 12.4501C5.72507 12.5334 5.54173 12.4918 5.37507 12.3251L2.65007 9.6001C2.4834 9.43343 2.44173 9.2501 2.52507 9.0501C2.6084 8.8501 2.76673 8.7501 3.00007 8.7501H5.25007L4.70007 8.2001C4.50007 8.0001 4.40007 7.76676 4.40007 7.5001C4.40007 7.23343 4.50007 7.0001 4.70007 6.8001L7.55007 3.9501C7.8834 3.61676 8.24173 3.3751 8.62507 3.2251C9.0084 3.0751 9.40006 3.0001 9.80007 3.0001C10.1334 3.0001 10.4459 3.0501 10.7376 3.1501C11.0292 3.2501 11.3167 3.4001 11.6001 3.6001C11.7334 3.68343 11.8042 3.8001 11.8126 3.9501C11.8209 4.1001 11.7667 4.23343 11.6501 4.3501L9.75006 6.2501L10.3001 6.8001C10.4834 6.98343 10.5751 7.21676 10.5751 7.5001C10.5751 7.78343 10.4834 8.01676 10.3001 8.2001L12.0001 9.9001L14.2501 7.6501C14.1834 7.46676 14.1292 7.2751 14.0876 7.0751C14.0459 6.8751 14.0251 6.6751 14.0251 6.4751C14.0251 5.49176 14.3626 4.6626 15.0376 3.9876C15.7126 3.3126 16.5417 2.9751 17.5251 2.9751C17.6584 2.9751 17.7834 2.97926 17.9001 2.9876C18.0167 2.99593 18.1334 3.01676 18.2501 3.0501C18.4001 3.1001 18.4959 3.20426 18.5376 3.3626C18.5792 3.52093 18.5417 3.65843 18.4251 3.7751L16.8001 5.4001C16.7001 5.5001 16.6501 5.61676 16.6501 5.7501C16.6501 5.88343 16.7001 6.0001 16.8001 6.1001L17.9001 7.2001C18.0001 7.3001 18.1167 7.3501 18.2501 7.3501C18.3834 7.3501 18.5001 7.3001 18.6001 7.2001L20.2251 5.5751C20.3417 5.45843 20.4792 5.41676 20.6376 5.4501C20.7959 5.48343 20.9001 5.58343 20.9501 5.7501C20.9834 5.86676 21.0042 5.98343 21.0126 6.1001C21.0209 6.21676 21.0251 6.34176 21.0251 6.4751C21.0251 7.45843 20.6876 8.2876 20.0126 8.9626C19.3376 9.6376 18.5084 9.9751 17.5251 9.9751C17.3251 9.9751 17.1251 9.95843 16.9251 9.9251C16.7251 9.89176 16.5334 9.83343 16.3501 9.7501L6.15007 19.9501C5.86673 20.2334 5.51673 20.3751 5.10006 20.3751C4.6834 20.3751 4.3334 20.2334 4.05007 19.9501Z" fill="white"/>
</svg>
